<svg xmlns="http://www.w3.org/2000/svg" viewBox="0 0 305.6 70"><defs><style>.cls-1{fill:#ea580c;}.cls-2{fill:#131313;}</style></defs><g id="Layer_2" data-name="Layer 2"><g id="Layer_1-2" data-name="Layer 1"><path class="cls-1" d="M34,14a4.73,4.73,0,1,0,6.69,0A4.73,4.73,0,0,0,34,14Z"/><path class="cls-1" d="M14,34a4.73,4.73,0,1,0,6.69,0A4.74,4.74,0,0,0,14,34Z"/><path class="cls-1" d="M44.08,44.08a4.73,4.73,0,1,0,6.69,0A4.73,4.73,0,0,0,44.08,44.08Z"/><path class="cls-1" d="M10.25,10.25a35,35,0,1,0,49.5,0A35,35,0,0,0,10.25,10.25ZM54.11,54.11A9.45,9.45,0,0,1,39.28,42.62l-1.9-1.89-6.69,6.69a4.57,4.57,0,0,1-6.69,0l-1.89-1.89a9.48,9.48,0,1,1,3.34-3.35l1.9,1.9L44.08,27.35l-1.9-1.9a9.45,9.45,0,1,1,3.35-3.34L47.42,24a4.57,4.57,0,0,1,0,6.69l-6.69,6.69,1.89,1.9A9.45,9.45,0,0,1,54.11,54.11Z"/><path class="cls-2" d="M93.08,48.35a6,6,0,0,1-1.08.09,4,4,0,0,1-1.43-.24,2.08,2.08,0,0,1-1-.91,4,4,0,0,1-.39-1.95V31.53h5.27V26.66H89.14v-6.4H82.85v6.4h-3.8v4.87h3.8V46.39a7.27,7.27,0,0,0,1.07,4.17,6.63,6.63,0,0,0,3,2.47,10.45,10.45,0,0,0,4.27.72,12.33,12.33,0,0,0,2.26-.25c.62-.14,1.11-.27,1.44-.38L93.84,48.2Z"/><path class="cls-2" d="M117.08,27.48a9.7,9.7,0,0,0-4.85-1.17,9,9,0,0,0-5,1.32,7.68,7.68,0,0,0-2.9,3.57H104V17.75H97.81V53.38h6.29V37.72a7,7,0,0,1,.73-3.29,5.19,5.19,0,0,1,2.06-2.07,6.16,6.16,0,0,1,3-.73,4.94,4.94,0,0,1,3.86,1.52,5.89,5.89,0,0,1,1.39,4.19v16h6.3v-17a11.84,11.84,0,0,0-1.15-5.48A7.78,7.78,0,0,0,117.08,27.48Z"/><path class="cls-2" d="M140.64,26.45a7.08,7.08,0,0,0-1.09-.12c-.43,0-.82,0-1.17,0a6.89,6.89,0,0,0-4.09,1.27,6.61,6.61,0,0,0-2.5,3.56h-.28V26.66H125.4V53.38h6.3V37.67a5.74,5.74,0,0,1,.78-3,5.43,5.43,0,0,1,2.14-2,6.38,6.38,0,0,1,3.1-.75,11.87,11.87,0,0,1,1.65.12,7,7,0,0,1,1.27.24Z"/><path class="cls-2" d="M161.33,29.55a10.38,10.38,0,0,0-3.89-2.44,13.6,13.6,0,0,0-4.67-.8,12.4,12.4,0,0,0-6.66,1.76,11.86,11.86,0,0,0-4.42,4.87,16,16,0,0,0-1.56,7.24,16,16,0,0,0,1.56,7.28,11.33,11.33,0,0,0,4.47,4.77,13.72,13.72,0,0,0,6.94,1.67,15.14,15.14,0,0,0,5.54-.94,10.33,10.33,0,0,0,4-2.68,9.07,9.07,0,0,0,2.13-4.07l-5.88-.66a4.8,4.8,0,0,1-1.24,1.9,5.39,5.39,0,0,1-1.93,1.16,7.48,7.48,0,0,1-2.49.39,7.11,7.11,0,0,1-3.58-.87,6.17,6.17,0,0,1-2.39-2.54,8.78,8.78,0,0,1-.84-3.85H165V39.81a16.86,16.86,0,0,0-1-6.05A11.33,11.33,0,0,0,161.33,29.55Zm-14.93,8a6.86,6.86,0,0,1,.79-2.91,6.41,6.41,0,0,1,2.28-2.43A6.59,6.59,0,0,1,156,32a5.79,5.79,0,0,1,2.14,2.25A6.75,6.75,0,0,1,159,37.5Z"/><path class="cls-2" d="M186.15,28.26a10.72,10.72,0,0,0-3.5-1.5,16.65,16.65,0,0,0-3.84-.45,14.94,14.94,0,0,0-5.12.84,9.86,9.86,0,0,0-3.91,2.47,9.39,9.39,0,0,0-2.3,4.07l5.88.83a5.08,5.08,0,0,1,1.81-2.38,6.05,6.05,0,0,1,3.67-1,4.78,4.78,0,0,1,3.36,1.08,3.93,3.93,0,0,1,1.17,3v.11a1.49,1.49,0,0,1-.68,1.34,5.85,5.85,0,0,1-2.12.62c-1,.13-2.25.28-3.81.44a25.73,25.73,0,0,0-3.78.68,11.12,11.12,0,0,0-3.25,1.34,6.37,6.37,0,0,0-2.28,2.36,7.5,7.5,0,0,0-.84,3.74,7.91,7.91,0,0,0,1.17,4.42A7.37,7.37,0,0,0,171,53a11,11,0,0,0,4.58.91,10.48,10.48,0,0,0,3.63-.57,8,8,0,0,0,2.59-1.55,7.61,7.61,0,0,0,1.62-2.09h.21v3.67h6V35.5a9.12,9.12,0,0,0-1-4.44A7.48,7.48,0,0,0,186.15,28.26Zm-2.77,15.53a5.17,5.17,0,0,1-.76,2.74,5.54,5.54,0,0,1-2.14,2,6.86,6.86,0,0,1-3.29.75A5.48,5.48,0,0,1,174,48.4a3.35,3.35,0,0,1-.62-4.61,4.16,4.16,0,0,1,1.76-1.21,11.06,11.06,0,0,1,2.52-.63l1.48-.21c.57-.08,1.14-.17,1.72-.28a12.93,12.93,0,0,0,1.56-.36,2.93,2.93,0,0,0,1-.45Z"/><path class="cls-2" d="M211.38,31.08h-.26A12,12,0,0,0,209.74,29a7.15,7.15,0,0,0-2.4-1.9,8.25,8.25,0,0,0-3.86-.8,10.27,10.27,0,0,0-5.58,1.58,10.92,10.92,0,0,0-4,4.65,17.4,17.4,0,0,0-1.46,7.51,17.54,17.54,0,0,0,1.44,7.48,11,11,0,0,0,3.94,4.7,10.08,10.08,0,0,0,5.63,1.62,8.42,8.42,0,0,0,3.81-.77,7.79,7.79,0,0,0,2.44-1.84,11.2,11.2,0,0,0,1.41-2.07h.38v4.21h6.19V17.75h-6.31Zm-.61,13.48a6.74,6.74,0,0,1-2.14,3,5.45,5.45,0,0,1-3.41,1.08,5.53,5.53,0,0,1-3.5-1.11,7,7,0,0,1-2.14-3.08,13.18,13.18,0,0,1-.71-4.47,12.85,12.85,0,0,1,.71-4.42,6.67,6.67,0,0,1,2.13-3,5.55,5.55,0,0,1,3.51-1.09,5.48,5.48,0,0,1,3.43,1.06,6.46,6.46,0,0,1,2.12,3A12.58,12.58,0,0,1,211.5,40,12.83,12.83,0,0,1,210.77,44.56Z"/><path class="cls-2" d="M230.67,22.15a3.13,3.13,0,0,1,2.49-.85,6.32,6.32,0,0,1,1.36.14c.4.08.74.16,1,.24l1.26-4.87a17.92,17.92,0,0,0-1.88-.47,14.91,14.91,0,0,0-2.91-.26,9.86,9.86,0,0,0-4.21.89,7,7,0,0,0-3,2.68,8.28,8.28,0,0,0-1.12,4.49v2.52h-3.95v4.87h3.95V53.38H230V31.53h5.53V26.66H230V24.55A3.64,3.64,0,0,1,230.67,22.15Z"/><path class="cls-2" d="M255.41,28a14.24,14.24,0,0,0-13.57,0,11.65,11.65,0,0,0-4.45,4.84,15.84,15.84,0,0,0-1.57,7.25,15.76,15.76,0,0,0,1.57,7.24,11.72,11.72,0,0,0,4.45,4.82,14.24,14.24,0,0,0,13.57,0,11.69,11.69,0,0,0,4.44-4.82,15.76,15.76,0,0,0,1.58-7.24,15.84,15.84,0,0,0-1.58-7.25A11.63,11.63,0,0,0,255.41,28Zm-1.08,16.49a7,7,0,0,1-2.12,3.17,5.42,5.42,0,0,1-3.55,1.17A5.56,5.56,0,0,1,245,47.69a7.17,7.17,0,0,1-2.14-3.17,14.34,14.34,0,0,1,0-8.85A7.15,7.15,0,0,1,245,32.49a5.52,5.52,0,0,1,3.62-1.19,5.38,5.38,0,0,1,3.55,1.19,7,7,0,0,1,2.12,3.18,12.93,12.93,0,0,1,.71,4.44A12.83,12.83,0,0,1,254.33,44.52Z"/><path class="cls-2" d="M277.3,26.28a6.89,6.89,0,0,0-4.09,1.27,6.66,6.66,0,0,0-2.5,3.56h-.28V26.66h-6.11V53.38h6.3V37.67a5.74,5.74,0,0,1,.78-3,5.5,5.5,0,0,1,2.14-2,6.38,6.38,0,0,1,3.1-.75,11.66,11.66,0,0,1,1.65.12,6.66,6.66,0,0,1,1.27.24V26.45a7.08,7.08,0,0,0-1.09-.12C278,26.29,277.65,26.28,277.3,26.28Z"/><polygon class="cls-2" points="294.63 38.19 304.99 26.66 297.63 26.66 288.03 37.39 287.6 37.39 287.6 17.75 281.3 17.75 281.3 53.38 287.6 53.38 287.6 44.4 289.89 41.94 298.07 53.38 305.6 53.38 294.63 38.19"/></g></g></svg>
